<svg version="1.1" id="Layer_1" xmlns="http://www.w3.org/2000/svg" x="0" y="0" viewBox="0 0 512 512" style="enable-background:new 0 0 512 512" xml:space="preserve"><path style="fill:#5a8bb0" d="M336 96c-43.106 0-82.584 15.504-113.184 41.23 25.93-58.966 83.267-101.002 150.837-104.918C344.944 11.963 309.869 0 272 0 174.794 0 96 78.798 96 176c0 43.106 15.504 82.584 41.23 113.184-58.968-25.931-101.001-83.267-104.92-150.838C11.963 167.056 0 202.13 0 240c0 97.206 78.798 176 176 176 43.106 0 82.584-15.504 113.184-41.23-25.93 58.968-83.266 101.002-150.838 104.918C167.056 500.037 202.13 512 240 512c97.206 0 176-78.798 176-176 0-43.106-15.504-82.584-41.23-113.184 58.968 25.931 101.002 83.267 104.918 150.838C500.037 344.944 512 309.87 512 272c0-97.206-78.798-176-176-176zM235.149 301.917c-12.592-19.914-21.31-42.518-25.066-66.768 19.914-12.592 42.518-21.31 66.768-25.066 12.592 19.914 21.31 42.518 25.066 66.768-19.914 12.592-42.519 21.312-66.768 25.066z"/><path style="fill:#3c5d76" d="M256 87.227c29.877-31.653 71.362-52.234 117.653-54.915C344.944 11.963 309.869 0 272 0c-5.395 0-10.73.256-16 .731v86.496zM336 96c-28.811 0-55.997 6.934-80 19.211v99.434a174.2 174.2 0 0 1 20.851-4.56c12.592 19.914 21.31 42.518 25.066 66.768A175.17 175.17 0 0 1 256 297.359v99.432a176.309 176.309 0 0 0 33.184-22.019c-8.166 18.568-19.451 35.454-33.184 50.003v86.496c89.706-8.086 160-83.462 160-175.269 0-43.106-15.504-82.584-41.23-113.184 58.968 25.931 101.002 83.267 104.918 150.838C500.037 344.944 512 309.87 512 272c0-97.206-78.798-176-176-176z"/><circle style="fill:#1e2e3b" cx="256" cy="256" r="56"/></svg>